<svg width="447" height="478" viewBox="0 0 447 478" fill="none" xmlns="http://www.w3.org/2000/svg">
<path opacity="0.4" d="M354.236 366.143C442.739 254.293 413.289 189.309 372.501 143.001C276.664 34.0922 44.6036 118.924 73.3288 271.473C102.054 424.023 229.352 523.972 354.236 366.143Z" fill="#C1D0F8"/>
<path opacity="0.2" d="M177.174 59.5C119.91 70.2082 202.96 129.697 111.5 130.937C28.6381 132.06 119.009 303.92 177.174 347.337C239.478 393.841 169.182 381.398 265 409.5C360.818 437.603 266.039 367.582 338.344 296C423.931 211.267 307.157 239.437 363 130.937C383.823 90.4799 307.694 35.093 177.174 59.5Z" fill="white"/>
<path opacity="0.2" d="M145.066 25.2604C202.33 35.9686 202.606 125.021 294.065 126.26C376.927 127.384 326.731 293.344 268.565 336.76C206.262 383.265 272.307 431.418 176.489 459.521C80.6709 487.624 156.701 439.918 84.3964 368.336C-1.19111 283.604 12.9872 225.275 71.5653 154.76C100.64 119.761 14.5457 0.853426 145.066 25.2604Z" fill="white"/>
<mask id="mask0_77_96" style="mask-type:alpha" maskUnits="userSpaceOnUse" x="109" y="170" width="44" height="45">
<path d="M115.714 196.112C121.957 202.95 136.933 204.576 144.553 210.382C146.039 213.752 149.488 218.112 151.391 208.599C153.769 196.706 152.58 180.057 137.12 181.841C124.752 183.268 113.93 174.706 110.065 170.246C108.282 172.625 109.471 189.274 115.714 196.112Z" fill="#A7A7A7"/>
</mask>
<g mask="url(#mask0_77_96)">
<path d="M115.714 196.112C121.957 202.95 136.933 204.576 144.553 210.382C146.039 213.752 149.488 218.112 151.391 208.599C153.769 196.706 152.58 180.057 137.12 181.841C124.752 183.268 113.93 174.706 110.065 170.246C108.282 172.625 109.471 189.274 115.714 196.112Z" fill="#84D76F"/>
<path d="M130.282 195.22C117.676 191.652 111.354 176.49 109.768 169.354L107.092 174.409L107.984 198.49L141.58 214.247L149.607 210.977C148.418 207.211 142.888 198.788 130.282 195.22Z" fill="#76C562"/>
</g>
<path d="M159.121 185.112C155.315 185.825 151.391 202.256 149.904 210.382L157.634 209.788C158.526 197.004 165.067 185.112 164.472 184.517C163.878 183.922 163.878 184.22 159.121 185.112Z" fill="#9B8F51"/>
<path d="M112.147 248.437C119.52 217.28 142.571 208.301 153.174 207.707C184.57 213.177 188.058 245.861 185.878 261.519C186.671 273.51 181.24 297.492 153.174 297.492C118.093 297.492 102.93 287.384 112.147 248.437Z" fill="#EAD35D"/>
<path d="M203.26 158.354C201.357 158.354 196.917 169.057 194.935 174.409L207.719 177.382C206.768 165.49 210.098 160.931 211.881 160.138C209.8 159.543 205.162 158.354 203.26 158.354Z" fill="#687A64"/>
<mask id="mask1_77_96" style="mask-type:alpha" maskUnits="userSpaceOnUse" x="173" y="173" width="72" height="112">
<path d="M218.772 205.718C218.296 177.177 208.663 173.015 203.906 174.501C167.041 165.701 171.302 243.575 178.041 283.612C204.501 284.306 254.567 285.277 243.15 283.612C228.88 281.531 219.366 241.395 218.772 205.718Z" fill="#D9D9D9"/>
</mask>
<g mask="url(#mask1_77_96)">
<path d="M218.772 205.718C218.296 177.177 208.663 173.015 203.906 174.501C167.041 165.701 171.302 243.575 178.041 283.612C204.501 284.306 254.567 285.277 243.15 283.612C228.88 281.531 219.366 241.395 218.772 205.718Z" fill="#8AB57F"/>
<path d="M192.259 289.763C175.135 254.8 188.692 197.697 197.611 173.517L192.259 170.246L169.664 183.625L172.637 289.763H192.259Z" fill="#7CAA71"/>
</g>
<path d="M250.744 270.735C231.478 234.583 269.672 222.374 291.177 220.788C341.421 220.788 335.773 249.329 331.908 270.735C328.043 292.141 274.825 315.925 250.744 270.735Z" fill="#F36F67"/>
<path d="M255.585 238.633C259.39 219.843 275.603 218.713 283.234 220.497C281.807 209.081 288.586 208.209 292.153 209.2C288.11 214.194 289.279 218.02 290.37 219.308C309.873 215.265 321.289 230.506 324.559 238.633C316.473 229.833 304.937 227.038 300.181 226.741C306.602 231.735 306.82 241.903 306.127 246.363C305.532 241.606 293.937 226.741 289.18 226.741C285.375 226.741 278.874 239.822 276.099 246.363C273.72 239.227 277.09 228.723 279.072 224.362C268.369 224.838 258.954 234.074 255.585 238.633Z" fill="#93C56B"/>
<path d="M103.365 453.577V317.114H339.424V453.577H103.365Z" fill="#DCBD96"/>
<mask id="mask2_77_96" style="mask-type:alpha" maskUnits="userSpaceOnUse" x="203" y="222" width="64" height="48">
<path d="M213.959 267.051C229.8 256.97 227.199 240.826 203.691 231.364C218.257 228.315 273.678 217.381 265.898 224.955C241.428 248.772 255.204 250.166 266.687 259.759C254.542 264.125 203.6 273.643 213.959 267.051Z" fill="#C5C5C5"/>
</mask>
<g mask="url(#mask2_77_96)">
<path d="M213.959 267.051C229.8 256.97 227.199 240.826 203.691 231.364C218.257 228.315 273.678 217.381 265.898 224.955C241.428 248.772 255.204 250.166 266.687 259.759C254.542 264.125 203.6 273.643 213.959 267.051Z" fill="#E9D9B1"/>
<path d="M244.56 245.978C241.993 236.033 222.972 230.987 212.872 230.607L230.048 226.936L267.457 223.618L264.337 258.451L255 267.785L229.55 264.96C236.228 262.177 247.126 255.924 244.56 245.978Z" fill="#DEC995"/>
</g>
<path d="M273.06 256.323C247.998 292.162 218.635 276.135 207.085 263.641C213.129 263.772 226.58 263.15 232.034 259.621C238.852 255.21 245.184 268.344 254.758 260.477C262.416 254.184 270.151 255.086 273.06 256.323Z" fill="#FB5F55"/>
<path d="M200.605 232.765C199.258 221.418 215.277 212.935 223.455 210.111C251.535 201.973 268.304 216.838 273.179 225.287C269.045 224.548 258.566 225.052 249.725 232.981C238.675 242.892 237.001 226.9 222.325 229.265C207.649 231.63 202.288 246.948 200.605 232.765Z" fill="#FB5F55"/>
<path d="M235.951 249.046C234.45 247.806 231.988 245.121 234.157 244.301C236.326 243.481 236.257 247.122 235.951 249.046Z" fill="#6C6450"/>
<path d="M238.867 248.784C239.903 247.135 241.397 243.813 239.08 243.715C236.763 243.618 237.973 247.054 238.867 248.784Z" fill="#6C6450"/>
<path d="M232.426 211.797C229.412 212.524 224.789 211.12 222.854 210.328C229.437 207.822 236.164 207.581 238.704 207.774C237.868 208.812 235.441 211.07 232.426 211.797Z" fill="#CF554D"/>
<path d="M222.951 201.579C225.655 200.421 228.508 207.409 229.596 211.048L232.389 209.695C230.693 205.15 227.941 200.775 226.776 199.156L222.951 201.579Z" fill="#6D5250"/>
<path d="M78.9863 336.439L99.5003 267.762H345.668L364.101 336.439H78.9863Z" fill="#CEAF88"/>
</svg>
