<svg width="238" height="235" viewBox="0 0 238 235" fill="none" xmlns="http://www.w3.org/2000/svg">
<circle opacity="0.5" cx="122.5" cy="119.5" r="115.5" fill="url(#paint0_linear_120_65)"/>
<path d="M54.5367 0C56.8369 0 62.204 12.9385 64.6 19.4078L49.1457 23.0018C50.2958 8.62569 46.2705 3.11483 44.114 2.15642C46.6299 1.43761 52.2366 0 54.5367 0Z" fill="#687A64"/>
<mask id="mask0_120_65" style="mask-type:alpha" maskUnits="userSpaceOnUse" x="0" y="18" width="91" height="174">
<path d="M35.7846 57.2573C36.3596 22.7546 48.0043 17.7229 53.7548 19.5199C98.3208 8.88158 93.1694 103.021 85.0229 151.421C71.965 229 -25.3919 172.5 6.31348 151.421C20.8316 141.769 35.0658 100.386 35.7846 57.2573Z" fill="#D9D9D9"/>
</mask>
<g mask="url(#mask0_120_65)">
<path d="M35.7846 57.2573C36.3596 22.7546 48.0043 17.7229 53.7548 19.5199C98.3208 8.88158 93.1694 103.021 85.0229 151.421C74.1081 228.5 -2.39188 182.5 18.6081 151.421C28.3688 136.976 35.0658 100.386 35.7846 57.2573Z" fill="#8AB57F"/>
<path d="M49.1081 198.5C69.8098 156.234 72.1475 47.5611 61.3654 18.3296L67.8347 14.3762L95.1494 30.5493V166L49.1081 198.5Z" fill="#7CAA71"/>
</g>
<path d="M126.367 149.756C103.078 106.052 149.249 91.293 175.246 89.3762C235.985 89.3762 229.157 123.879 224.485 149.756C219.812 175.633 155.479 204.385 126.367 149.756Z" fill="#F36F67"/>
<path d="M132.22 110.948C136.821 88.2339 156.42 86.8681 165.645 89.0245C163.92 75.2234 172.114 74.1692 176.427 75.3672C171.539 81.4052 172.953 86.0295 174.27 87.5869C197.847 82.699 211.648 101.124 215.602 110.948C205.826 100.31 191.881 96.9314 186.131 96.572C193.894 102.61 194.157 114.902 193.319 120.293C192.6 114.542 178.583 96.572 172.833 96.572C168.232 96.572 160.374 112.386 157.019 120.293C154.144 111.667 158.217 98.968 160.613 93.6968C147.675 94.2718 136.293 105.437 132.22 110.948Z" fill="#93C56B"/>
<mask id="mask1_120_65" style="mask-type:alpha" maskUnits="userSpaceOnUse" x="64" y="64" width="53" height="54">
<path d="M71.74 95.2681C79.2874 103.534 97.3912 105.5 106.602 112.52C108.399 116.593 112.568 121.864 114.868 110.363C117.744 95.9869 116.306 75.8603 97.6171 78.0167C82.6659 79.7419 69.5836 69.3911 64.9114 64C62.7549 66.8752 64.1927 87.0018 71.74 95.2681Z" fill="#A7A7A7"/>
</mask>
<g mask="url(#mask1_120_65)">
<path d="M71.74 95.2681C79.2874 103.534 97.3912 105.5 106.602 112.52C108.399 116.593 112.568 121.864 114.868 110.363C117.744 95.9869 116.306 75.8603 97.6171 78.0167C82.6659 79.7419 69.5836 69.3911 64.9114 64C62.7549 66.8752 64.1927 87.0018 71.74 95.2681Z" fill="#84D76F"/>
<path d="M89.3507 94.1899C74.112 89.877 66.4687 71.5474 64.5518 62.9218L61.3172 69.0316L62.3954 98.1433L103.008 117.192L112.712 113.238C111.274 108.686 104.589 98.5027 89.3507 94.1899Z" fill="#76C562"/>
</g>
<path d="M124.213 81.9702C119.613 82.8327 114.868 102.696 113.071 112.519L122.416 111.801C123.494 96.3463 131.401 81.9702 130.682 81.2513C129.963 80.5325 129.963 80.8919 124.213 81.9702Z" fill="#9B8F51"/>
<path d="M67.4271 158.523C76.3403 120.858 104.206 110.004 117.025 109.285C154.978 115.898 159.195 155.408 156.559 174.337C157.518 188.833 150.953 217.825 117.025 217.825C74.6152 217.825 56.2856 205.605 67.4271 158.523Z" fill="#EAD35D"/>
<defs>
<linearGradient id="paint0_linear_120_65" x1="122.5" y1="-47.9906" x2="122.5" y2="235" gradientUnits="userSpaceOnUse">
<stop stop-color="#F3C3AE"/>
<stop offset="1" stop-color="#FFDC84"/>
</linearGradient>
</defs>
</svg>
