<svg width="321" height="316" viewBox="0 0 321 316" fill="none" xmlns="http://www.w3.org/2000/svg">
<circle opacity="0.3" cx="115.5" cy="115.5" r="115.5" transform="matrix(1 0 0 -1 64 282)" fill="url(#paint0_linear_120_66)"/>
<g filter="url(#filter0_d_120_66)">
<path d="M100.606 119.678C101.727 94.1594 104.535 67.5434 103.04 41.9647C106.555 49.2325 256.501 50.6915 272.491 32.0549C274.535 29.6728 277.31 62.2199 277.521 63.9814C286.113 135.474 273.891 165.882 253.741 232.469C248.218 250.72 244.481 267.044 238.629 272.373C173.893 271.558 119.193 269.599 54.2361 273.398C46.6647 273.841 38.9727 273.18 47.603 264.607C81.4024 231.033 98.2328 173.707 100.606 119.678Z" fill="#FFF9E6"/>
</g>
<path d="M243.031 97.9827C240.274 98.8788 234.546 104.469 232.765 106.79C226.801 114.568 225.498 99.8352 220.507 100.795C217.896 101.297 218.179 105.734 216.198 107.508C214.315 109.195 209.985 105.207 207.517 104.811C203.59 104.182 202.418 102.208 198.279 103.17C195.156 103.896 193.396 107.526 190.309 108.12C185.146 109.113 179.131 105.144 172.883 106.345C166.829 107.509 160.203 113.354 154.552 113.192C149.19 113.038 144.717 110.052 138.791 111.192C136.332 111.664 133.857 112.282 131.377 112.617C127.794 113.102 128.099 109.359 125.484 108.625" stroke="#C5C5C5" stroke-width="4.58129" stroke-linecap="round"/>
<path d="M242.966 150.957C232.474 151.791 220.597 129.658 213.271 147.08C207.365 161.127 191.961 150.827 182.633 157.052C177.235 160.655 169.76 156.49 163.855 157.626C156.666 159.008 151.425 153.182 145.38 154.344C141.799 155.032 138.579 154.064 135.635 154.509C133.558 154.823 124.195 158.756 127.763 156.023" stroke="#C5C5C5" stroke-width="4.58129" stroke-linecap="round"/>
<path d="M227.883 188.03C224.11 189.256 225.677 193.679 220.785 191.103C216.256 188.717 212.219 186.628 207.095 186.047C199.881 185.229 196.141 196.494 193.53 195.964C185.181 194.265 183.131 194.492 174.844 196.519C169.869 197.736 161.697 197.324 157.702 200.669C152.554 204.98 148.28 197.668 143.431 197.529C139.448 197.414 136.548 197.049 132.387 197.849C131.358 198.047 120.576 199.209 126.114 200.763" stroke="#C5C5C5" stroke-width="4.58129" stroke-linecap="round"/>
<path d="M136.611 84.855C135.833 84.8602 135.259 84.3016 135.322 84.1307L138.224 74.3764C138.347 73.9333 138.744 73.6346 139.876 73.6025C141.008 73.5703 141.371 73.8475 141.519 74.2829L145.053 83.8376C145.144 84.0379 144.568 84.6122 143.774 84.6348C143.133 84.6699 142.699 84.2764 142.441 83.5397L141.8 81.7994L138.387 81.8963L137.846 83.6871C137.617 84.539 137.152 84.8397 136.611 84.855ZM138.724 80.0774L141.309 80.0041L139.888 75.8003L138.724 80.0774ZM146.533 79.0273C146.437 75.6482 148.348 73.2606 151.389 73.1743C152.757 73.1354 153.767 73.5464 154.39 74.0698C154.91 74.4947 155.196 75.0445 155.209 75.5176C155.245 76.7847 153.745 76.9626 153.642 76.881C153.241 75.8778 152.43 75.2921 151.45 75.3199C149.963 75.3621 148.984 76.6074 149.05 78.922C149.115 81.2198 150.18 82.407 151.667 82.3648C152.799 82.3327 153.488 81.6029 153.762 80.5299C153.793 80.4445 155.417 80.466 155.455 81.7838C155.469 82.2738 155.216 82.8897 154.688 83.3781C154.064 84.0046 153.045 84.4731 151.66 84.5124C148.653 84.5978 146.629 82.4063 146.533 79.0273ZM160.785 84.2534C157.761 84.3393 155.722 82.2159 155.623 78.7355C155.524 75.255 157.456 73.0021 160.463 72.9167C163.47 72.8313 165.526 74.9542 165.625 78.4347C165.724 81.932 163.792 84.1681 160.785 84.2534ZM160.725 82.1415C162.262 82.0979 163.21 80.9212 163.142 78.5221C163.073 76.1229 162.043 74.9686 160.522 75.0117C158.985 75.0554 158.021 76.2325 158.089 78.6485C158.157 81.0477 159.204 82.1847 160.725 82.1415ZM171.229 83.957C168.205 84.0428 166.167 81.9194 166.068 78.439C165.969 74.9586 167.9 72.7056 170.908 72.6202C173.915 72.5349 175.971 74.6578 176.069 78.1382C176.169 81.6355 174.237 83.8716 171.229 83.957ZM171.17 81.8451C172.707 81.8014 173.654 80.6247 173.586 78.2256C173.518 75.8265 172.488 74.6721 170.967 74.7153C169.43 74.7589 168.466 75.9361 168.534 78.3521C168.602 80.7512 169.649 81.8882 171.17 81.8451ZM178.289 83.5537C177.495 83.5762 177.026 83.1161 177.001 82.2375L176.759 73.7054C176.737 72.9452 177.082 72.5803 177.741 72.5616L178.095 72.5515C178.771 72.5323 179.153 72.8766 179.175 73.6369L179.393 81.3242L182.772 81.2283C183.515 81.2072 183.897 81.5514 183.916 82.2273L183.919 82.3286C183.939 83.0213 183.578 83.4036 182.834 83.4247L178.289 83.5537ZM187.015 83.3736C186.356 83.3923 185.989 82.9631 185.965 82.1015L185.728 73.7721C185.704 72.9105 186.145 72.3907 186.94 72.3681L189.846 72.2856C192.414 72.2128 193.765 73.358 193.828 75.5882C193.873 77.1594 193.126 78.2459 191.718 78.6748C191.6 78.7119 191.449 78.75 191.298 78.7881L194.121 82.3265C194.209 82.4424 193.773 83.1818 192.76 83.2106C192.067 83.2303 191.668 82.8865 191.263 82.3062L188.943 79.1932L188.267 79.2124L188.352 82.2197C188.372 82.9293 188.029 83.3449 187.336 83.3645L187.015 83.3736ZM188.189 77.659L189.726 77.6153C190.926 77.5813 191.466 76.9403 191.434 75.8421C191.402 74.6933 190.811 74.1351 189.595 74.1696L188.091 74.2123L188.189 77.659ZM196.177 83.046C195.383 83.0685 194.913 82.6084 194.888 81.7298L194.655 73.5188C194.63 72.6402 195.072 72.1373 195.866 72.1148L201.138 71.9651C201.898 71.9436 202.262 72.2545 202.28 72.8965L202.283 72.9979C202.302 73.6737 201.955 73.971 201.195 73.9926L197.073 74.1096L197.14 76.4749L200.046 76.3924C200.84 76.3699 201.169 76.648 201.186 77.2562L201.189 77.3576C201.208 78.0165 200.879 78.3302 200.101 78.3523L197.196 78.4348L197.268 80.9859L201.475 80.8665C202.235 80.845 202.598 81.1052 202.615 81.7303L202.619 81.8486C202.638 82.5244 202.293 82.8724 201.532 82.894L196.177 83.046ZM202.668 77.434C202.572 74.0549 204.483 71.6673 207.524 71.581C208.893 71.5421 209.902 71.9531 210.525 72.4765C211.045 72.9014 211.331 73.4512 211.344 73.9243C211.38 75.1915 209.881 75.3693 209.777 75.2877C209.376 74.2845 208.565 73.6988 207.585 73.7267C206.098 73.7689 205.119 75.0141 205.185 77.3287C205.25 79.6265 206.315 80.8137 207.802 80.7715C208.934 80.7394 209.623 80.0096 209.897 78.9366C209.929 78.8512 211.552 78.8727 211.59 80.1905C211.604 80.6805 211.351 81.2964 210.823 81.7848C210.199 82.4113 209.181 82.8798 207.795 82.9191C204.788 83.0045 202.764 80.813 202.668 77.434ZM212.39 81.5374L212.14 72.7012C212.118 71.9578 212.463 71.5761 213.122 71.5574L213.459 71.5478C214.152 71.5281 214.518 71.8897 214.539 72.6331L214.789 81.4693C214.81 82.1958 214.466 82.5945 213.774 82.6142L213.436 82.6238C212.777 82.6425 212.411 82.2639 212.39 81.5374ZM217.146 82.5185C216.503 82.5367 216.121 82.1586 216.1 81.4321L215.858 72.9169C215.834 72.0553 216.276 71.5355 217.07 71.5129L219.621 71.4405C222.257 71.3657 223.729 72.609 223.798 75.025C223.866 77.441 222.517 78.7475 219.881 78.8223L218.445 78.8631L218.516 81.3636C218.536 82.0563 218.176 82.4892 217.483 82.5089L217.146 82.5185ZM219.745 77C220.894 76.9674 221.484 76.3081 221.45 75.1086C221.416 73.909 220.789 73.2842 219.624 73.3173L218.255 73.3562L218.36 77.0393L219.745 77ZM225.878 82.203C225.084 82.2255 224.614 81.7654 224.589 80.8868L224.356 72.6757C224.331 71.7972 224.774 71.2943 225.568 71.2717L230.839 71.1221C231.599 71.1005 231.963 71.4115 231.981 72.0535L231.984 72.1549C232.003 72.8307 231.657 73.128 230.897 73.1496L226.774 73.2666L226.841 75.6319L229.747 75.5494C230.541 75.5269 230.87 75.805 230.888 76.4132L230.891 76.5146C230.909 77.1735 230.58 77.4872 229.803 77.5093L226.897 77.5917L226.969 80.1429L231.176 80.0235C231.936 80.0019 232.299 80.2622 232.317 80.8873L232.32 81.0056C232.339 81.6814 231.994 82.0294 231.234 82.051L225.878 82.203ZM233.978 78.4898C233.64 78.4994 233.48 78.2334 233.383 77.7965L232.572 72.4426C232.378 71.5519 232.765 70.8984 233.576 70.8754L234.15 70.859C235.012 70.8346 235.436 71.4651 235.292 72.3653L234.769 77.7741C234.697 78.1989 234.552 78.4735 234.214 78.4831L233.978 78.4898ZM234.063 82.0721C233.319 82.0932 232.953 81.7147 232.931 80.9206L232.925 80.7179C232.903 79.9238 233.246 79.5251 233.99 79.504L234.26 79.4964C235.037 79.4743 235.369 79.8538 235.392 80.6479L235.398 80.8506C235.42 81.6447 235.093 82.0429 234.333 82.0644L234.063 82.0721Z" fill="#FF8D4D"/>
<defs>
<filter id="filter0_d_120_66" x="30.7921" y="22.9303" width="262.515" height="267.57" filterUnits="userSpaceOnUse" color-interpolation-filters="sRGB">
<feFlood flood-opacity="0" result="BackgroundImageFix"/>
<feColorMatrix in="SourceAlpha" type="matrix" values="0 0 0 0 0 0 0 0 0 0 0 0 0 0 0 0 0 0 127 0" result="hardAlpha"/>
<feOffset dy="4"/>
<feGaussianBlur stdDeviation="6.5"/>
<feComposite in2="hardAlpha" operator="out"/>
<feColorMatrix type="matrix" values="0 0 0 0 0 0 0 0 0 0 0 0 0 0 0 0 0 0 0.11 0"/>
<feBlend mode="normal" in2="BackgroundImageFix" result="effect1_dropShadow_120_66"/>
<feBlend mode="normal" in="SourceGraphic" in2="effect1_dropShadow_120_66" result="shape"/>
</filter>
<linearGradient id="paint0_linear_120_66" x1="115.5" y1="-51.9906" x2="115.5" y2="231" gradientUnits="userSpaceOnUse">
<stop stop-color="#AEE2F3"/>
<stop offset="1" stop-color="#B5C3F8"/>
</linearGradient>
</defs>
</svg>
