<svg width="367" height="280" viewBox="0 0 367 280" fill="none" xmlns="http://www.w3.org/2000/svg">
<circle opacity="0.3" cx="115.5" cy="115.5" r="115.5" transform="matrix(1 0 0 -1 47 268)" fill="url(#paint0_linear_120_67)"/>
<path d="M283.612 106.353C289.664 101.603 320.942 68.282 335.824 52.2156C312.206 56.4796 281.316 82.3799 275.302 99.7244C270.491 113.6 239.223 151.288 224.19 168.398L226.691 170.995C236.354 168.234 276.047 112.292 283.612 106.353Z" fill="#484139"/>
<path d="M257.254 115.14C244.947 143.782 228.175 159.512 221.327 163.797L224.272 168.854C232.09 163.378 251.787 145.087 268.031 115.734C284.274 86.3814 319.99 61.1341 335.817 52.1796C333.123 49.4482 324.234 45.4302 310.238 51.2088C292.743 58.4321 272.637 79.3369 257.254 115.14Z" fill="#979694"/>
<path fill-rule="evenodd" clip-rule="evenodd" d="M228.44 168.647C225.309 213.501 189.973 252.821 140.938 261.673C91.9024 270.526 45.0477 246.046 26.4296 205.118L228.44 168.647Z" fill="#484139"/>
<path d="M225.755 168.624C225.884 169.34 225.731 170.319 224.869 171.659C223.998 173.014 222.507 174.56 220.317 176.25C215.942 179.627 209.216 183.247 200.537 186.862C183.217 194.077 158.631 201.066 130.899 206.072C103.168 211.079 77.6899 213.129 58.941 212.426C49.5457 212.074 41.9784 211.035 36.6986 209.401C34.0554 208.583 32.1183 207.656 30.8284 206.692C29.5521 205.738 29.0662 204.874 28.9369 204.158C28.8076 203.441 28.9607 202.462 29.8228 201.122C30.6942 199.768 32.1847 198.222 34.375 196.531C38.7502 193.154 45.4763 189.534 54.1552 185.919C71.4747 178.704 96.061 171.715 123.793 166.709C151.524 161.702 177.002 159.652 195.751 160.355C205.146 160.707 212.713 161.746 217.993 163.38C220.636 164.198 222.574 165.125 223.864 166.089C225.14 167.043 225.626 167.907 225.755 168.624Z" fill="#2A2318" stroke="#979694" stroke-width="5"/>
<g filter="url(#filter0_d_120_67)">
<path d="M53.2884 165.849C49.8095 163.37 41.0611 159.694 33.8991 164.822" stroke="#3D6F52" stroke-width="2"/>
<path d="M136.784 177.748C126.757 180.423 109.692 183.879 72.8163 165.36C26.7222 142.212 56.9173 221.148 136.784 177.748Z" fill="#EA5C5C"/>
<path opacity="0.6" d="M60.5581 165.754C62.4597 166.26 64.4688 166.685 66.3186 167.337C67.5464 167.77 68.6553 168.457 69.7813 169.037C71.177 169.756 72.5948 170.454 73.9608 171.207C77.6886 173.261 81.4728 175.001 85.4608 176.706C88.3154 177.927 91.0183 179.007 94.0664 179.819" stroke="white" stroke-width="3" stroke-linecap="round"/>
</g>
<g filter="url(#filter1_d_120_67)">
<path d="M155.094 100.729C156.648 98.4286 161.139 94.2021 166.666 95.6973" stroke="#3D6F52" stroke-width="1.29978"/>
<path d="M106.96 126.948C113.673 126.298 124.849 124.524 143.093 104.869C165.897 80.2999 165.451 135.223 106.96 126.948Z" fill="#EA5C5C"/>
<path opacity="0.6" d="M150.646 102.323C149.603 103.063 148.476 103.779 147.498 104.596C146.849 105.138 146.33 105.809 145.776 106.418C145.09 107.173 144.385 107.92 143.725 108.689C141.922 110.787 140.013 112.706 137.972 114.651C136.512 116.043 135.112 117.315 133.44 118.502" stroke="white" stroke-width="1.94967" stroke-linecap="round"/>
</g>
<g filter="url(#filter2_d_120_67)">
<path d="M104.922 58.1619C107.261 56.6659 111.6 52.2833 110.245 46.721" stroke="#3D6F52" stroke-width="1.29978"/>
<path d="M77.492 105.615C78.3117 98.921 80.3682 87.7936 100.479 70.0539C125.618 47.8793 70.7019 46.9339 77.492 105.615Z" fill="#EA5C5C"/>
<path opacity="0.6" d="M103.216 62.568C102.449 63.5915 101.706 64.6998 100.864 65.6569C100.305 66.2922 99.6221 66.7941 98.999 67.3322C98.2267 67.9991 97.4619 68.6846 96.6766 69.3255C94.5337 71.0747 92.5668 72.9341 90.5711 74.9248C89.1426 76.3498 87.8358 77.7174 86.6067 79.358" stroke="white" stroke-width="1.94967" stroke-linecap="round"/>
</g>
<path d="M74.4415 130.537C75.0617 131.292 75.682 132.046 76.3023 132.801C76.6635 133.24 77.0807 133.601 77.4573 134.025C77.8054 134.417 78.4964 133.231 78.6641 133C79.2506 132.191 79.7513 131.379 80.5265 130.741C80.6068 130.675 81.169 130.308 81.1123 130.177C81.0791 130.101 80.9216 130.112 80.857 130.098C80.6066 130.041 80.3828 129.622 80.236 129.443C79.7813 128.89 79.4218 128.272 78.9708 127.723C78.7909 127.504 78.439 126.865 78.1727 126.792C77.9086 126.72 76.828 127.791 76.6054 127.932C75.9516 128.345 75.3467 128.752 74.7493 129.243C74.5101 129.44 74.2138 129.536 74.452 129.826C74.7371 130.173 75.0222 130.52 75.3074 130.867C75.7013 131.346 76.1347 131.869 76.624 132.247C76.9513 132.5 77.2623 132.93 77.6692 133.016C78.2852 133.146 78.6279 131.41 78.9988 131.105C79.1217 131.004 79.6852 130.441 79.6227 130.336C79.2661 129.734 78.7034 129.207 78.2574 128.665C77.5503 127.805 76.6979 129.127 75.8983 129.414C75.7293 129.475 75.1071 129.99 75.2848 129.844C75.7198 129.486 77.05 128.217 77.6222 128.435C77.793 128.5 78.0503 128.368 78.2347 128.386C78.386 128.401 78.6469 128.563 78.8111 128.614C79.3819 128.793 80.2419 129.608 80.0034 130.246C79.4389 131.755 78.4317 130.388 77.9486 129.737C77.8086 129.548 77.5813 129.558 77.7696 129.619C77.889 129.658 78.4703 129.735 78.2906 129.439C77.9807 128.929 77.8632 128.299 77.5187 129.123C77.2953 129.658 76.514 130.646 75.8892 130.76C74.8814 130.945 76.702 131.61 76.967 131.8C77.3484 132.073 77.9047 132.637 78.1472 132.069C78.5922 131.028 78.6999 129.79 77.2705 130.179C76.5714 130.368 77.3376 130.95 77.5559 131.25C77.5873 131.293 76.5364 130.76 76.2206 130.711C75.9374 130.667 75.4543 130.615 75.8558 130.267C76.4917 129.716 77.1583 129.196 77.8087 128.662C77.8913 128.594 78.6343 128.063 78.2806 128.009C77.8118 127.939 77.5819 128.551 77.3076 128.776" stroke="#FF9466" stroke-width="1.10823" stroke-linecap="round"/>
<path d="M120.247 55.05C120.198 56.3001 120.148 57.5501 120.098 58.8002C120.069 59.5283 120.16 60.2288 120.159 60.9549C120.159 61.6261 121.83 61.0811 122.187 61.0029C123.437 60.7295 124.608 60.3792 125.892 60.4303C126.025 60.4356 126.876 60.563 126.933 60.39C126.967 60.2886 126.806 60.1655 126.757 60.0965C126.565 59.8292 126.709 59.237 126.721 58.9412C126.757 58.0247 126.94 57.1272 126.977 56.2182C126.991 55.8557 127.199 54.9451 127.006 54.6482C126.816 54.3538 124.869 54.4576 124.537 54.4025C123.559 54.2406 122.634 54.114 121.645 54.0746C121.248 54.0588 120.882 53.8991 120.863 54.379C120.84 54.9536 120.817 55.5283 120.795 56.1029C120.763 56.8968 120.732 57.7664 120.877 58.5448C120.975 59.0658 120.906 59.7418 121.222 60.1707C121.7 60.8199 123.507 59.4516 124.122 59.476C124.325 59.4841 125.344 59.4261 125.374 59.2722C125.545 58.3933 125.456 57.4099 125.492 56.5109C125.549 55.0859 123.607 55.6238 122.597 55.2173C122.384 55.1314 121.35 55.0939 121.644 55.1057C122.365 55.1344 124.719 55.0541 125.08 55.7499C125.188 55.9576 125.547 56.0505 125.708 56.2249C125.84 56.368 125.951 56.7456 126.064 56.9347C126.458 57.5921 126.585 59.1043 125.814 59.5107C123.988 60.4729 124.19 58.3075 124.283 57.273C124.31 56.9732 124.084 56.7895 124.212 57.0082C124.293 57.147 124.784 57.7154 124.864 57.2797C125.002 56.528 125.427 55.8251 124.395 56.3199C123.726 56.6407 122.137 56.92 121.442 56.4969C120.321 55.8145 121.495 58.0019 121.587 58.4094C121.718 58.996 121.77 60.0087 122.485 59.6727C123.799 59.056 124.956 57.9644 123.258 57.1176C122.428 56.7034 122.665 57.9122 122.619 58.3851C122.612 58.4529 122.061 57.0478 121.801 56.7322C121.567 56.4491 121.149 55.9877 121.83 55.9968C122.908 56.0114 123.988 56.0828 125.065 56.1257C125.202 56.1312 126.365 56.2564 126.073 55.904C125.685 55.4368 124.943 55.8262 124.489 55.8081" stroke="#FF9466" stroke-width="1.41946" stroke-linecap="round"/>
<path d="M116.836 166.383C117.939 167.725 119.042 169.067 120.145 170.409C120.787 171.191 121.529 171.832 122.199 172.586C122.818 173.282 124.047 171.174 124.345 170.763C125.388 169.325 126.279 167.88 127.657 166.747C127.8 166.629 128.8 165.975 128.699 165.743C128.64 165.607 128.36 165.628 128.245 165.602C127.8 165.502 127.402 164.755 127.141 164.437C126.332 163.454 125.693 162.354 124.891 161.378C124.571 160.989 123.945 159.853 123.471 159.723C123.002 159.594 121.08 161.5 120.684 161.75C119.521 162.485 118.445 163.208 117.383 164.081C116.958 164.431 116.431 164.604 116.854 165.119C117.361 165.736 117.868 166.352 118.375 166.969C119.076 167.821 119.847 168.752 120.717 169.424C121.299 169.874 121.852 170.639 122.576 170.792C123.671 171.023 124.281 167.935 124.94 167.393C125.159 167.213 126.161 166.212 126.05 166.025C125.416 164.956 124.415 164.018 123.622 163.053C122.364 161.524 120.848 163.875 119.426 164.386C119.126 164.494 118.019 165.41 118.335 165.15C119.109 164.515 121.475 162.257 122.492 162.645C122.796 162.76 123.254 162.525 123.582 162.557C123.851 162.584 124.315 162.872 124.607 162.964C125.622 163.282 127.151 164.732 126.727 165.865C125.723 168.549 123.932 166.118 123.073 164.96C122.824 164.624 122.419 164.643 122.754 164.751C122.967 164.82 124 164.956 123.681 164.43C123.13 163.524 122.921 162.403 122.308 163.869C121.911 164.819 120.521 166.577 119.41 166.78C117.618 167.108 120.856 168.291 121.327 168.629C122.005 169.115 122.995 170.117 123.426 169.108C124.217 167.256 124.409 165.055 121.867 165.745C120.623 166.083 121.986 167.117 122.374 167.65C122.43 167.727 120.561 166.779 120 166.692C119.496 166.615 118.637 166.522 119.351 165.903C120.482 164.922 121.667 163.999 122.824 163.048C122.971 162.927 124.292 161.983 123.663 161.888C122.829 161.762 122.421 162.85 121.933 163.251" stroke="#FF9466" stroke-width="1.97089" stroke-linecap="round"/>
<path d="M161.434 149.376C161.951 150.004 162.467 150.633 162.984 151.261C163.285 151.627 163.632 151.928 163.946 152.281C164.236 152.607 164.811 151.619 164.951 151.427C165.439 150.753 165.856 150.077 166.502 149.546C166.569 149.491 167.037 149.185 166.99 149.076C166.962 149.012 166.831 149.022 166.777 149.01C166.569 148.963 166.382 148.613 166.26 148.465C165.881 148.004 165.582 147.489 165.206 147.032C165.056 146.85 164.763 146.318 164.542 146.257C164.322 146.196 163.422 147.089 163.236 147.206C162.692 147.55 162.188 147.889 161.69 148.298C161.491 148.462 161.244 148.542 161.443 148.784C161.68 149.073 161.918 149.361 162.155 149.65C162.483 150.049 162.844 150.485 163.252 150.8C163.524 151.011 163.783 151.369 164.122 151.44C164.635 151.549 164.921 150.102 165.23 149.849C165.332 149.764 165.801 149.296 165.749 149.208C165.452 148.707 164.984 148.268 164.612 147.816C164.023 147.1 163.313 148.201 162.647 148.44C162.507 148.491 161.988 148.92 162.136 148.798C162.499 148.501 163.607 147.444 164.083 147.625C164.225 147.679 164.44 147.569 164.593 147.584C164.719 147.596 164.937 147.732 165.073 147.774C165.549 147.923 166.265 148.602 166.066 149.133C165.596 150.39 164.757 149.252 164.355 148.709C164.238 148.552 164.049 148.561 164.206 148.612C164.305 148.644 164.789 148.707 164.64 148.461C164.382 148.037 164.284 147.512 163.997 148.198C163.811 148.643 163.16 149.466 162.64 149.562C161.8 149.715 163.317 150.269 163.537 150.428C163.855 150.655 164.318 151.124 164.52 150.652C164.891 149.785 164.981 148.754 163.79 149.077C163.208 149.235 163.846 149.719 164.028 149.969C164.054 150.005 163.179 149.561 162.916 149.521C162.68 149.484 162.278 149.441 162.612 149.151C163.142 148.692 163.697 148.259 164.238 147.814C164.307 147.757 164.926 147.315 164.631 147.27C164.241 147.211 164.05 147.721 163.821 147.909" stroke="#FF9466" stroke-width="0.923027" stroke-linecap="round"/>
<path d="M61.154 60.5932C62.2571 61.9351 63.3602 63.2769 64.4632 64.6188C65.1057 65.4003 65.8476 66.042 66.5173 66.7956C67.1363 67.4923 68.3652 65.3837 68.6635 64.9725C69.7066 63.5346 70.597 62.0898 71.9757 60.9563C72.1184 60.839 73.1182 60.185 73.0174 59.953C72.9584 59.817 72.6782 59.8377 72.5634 59.8119C72.118 59.7115 71.7201 58.9649 71.4591 58.6473C70.6504 57.6635 70.011 56.564 69.2089 55.5883C68.889 55.1991 68.2632 54.0633 67.7896 53.9332C67.3199 53.8042 65.3982 55.7097 65.0024 55.9599C63.8396 56.6948 62.7638 57.418 61.7014 58.2913C61.276 58.641 60.7491 58.8135 61.1726 59.3286C61.6797 59.9455 62.1868 60.5623 62.6939 61.1792C63.3944 62.0313 64.1653 62.9616 65.0353 63.6341C65.6175 64.0841 66.1705 64.8486 66.8942 65.0014C67.9897 65.2326 68.5992 62.1447 69.2588 61.6025C69.4773 61.4229 70.4794 60.4219 70.3684 60.2347C69.7341 59.1655 68.7335 58.2281 67.9403 57.2631C66.6828 55.7335 65.1669 58.0846 63.7447 58.5957C63.4442 58.7037 62.3377 59.6201 62.6537 59.3603C63.4273 58.7244 65.793 56.4672 66.8106 56.8544C67.1143 56.9699 67.5719 56.7351 67.9 56.7672C68.169 56.7934 68.633 57.0823 68.925 57.1738C69.9401 57.4919 71.4694 58.9415 71.0454 60.075C70.0414 62.7591 68.2502 60.3281 67.3911 59.1696C67.1422 58.834 66.7378 58.8525 67.0727 58.9611C67.2851 59.0299 68.3188 59.1657 67.9994 58.6402C67.4482 57.7334 67.2392 56.6124 66.6265 58.0786C66.2292 59.0292 64.8397 60.7866 63.7287 60.9898C61.9364 61.3177 65.1741 62.5007 65.6454 62.8387C66.3237 63.3251 67.313 64.3269 67.7442 63.3179C68.5357 61.4657 68.7273 59.2648 66.1851 59.9553C64.9418 60.2929 66.3045 61.3267 66.6928 61.8601C66.7485 61.9366 64.8796 60.9887 64.318 60.9022C63.8143 60.8246 62.9553 60.7319 63.6692 60.1129C64.8002 59.1321 65.9855 58.2087 67.1422 57.2578C67.2892 57.137 68.6105 56.1926 67.9815 56.0976C67.1478 55.9716 66.739 57.0601 66.2512 57.4612" stroke="#FF9466" stroke-width="1.97089" stroke-linecap="round"/>
<circle cx="33.9955" cy="91.4659" r="3.5" transform="rotate(-10.2341 33.9955 91.4659)" fill="#FFE350"/>
<circle cx="62.7661" cy="115.74" r="3.5" transform="rotate(-10.2341 62.7661 115.74)" fill="#FFE350"/>
<circle cx="113.625" cy="70.9924" r="3.5" transform="rotate(-10.2341 113.625 70.9924)" fill="#FFE350"/>
<circle cx="115.796" cy="195.589" r="3.5" transform="rotate(-10.2341 115.796 195.589)" fill="#FFE350"/>
<circle cx="152.332" cy="88.3922" r="3.5" transform="rotate(-10.2341 152.332 88.3922)" fill="#FFE350"/>
<circle cx="126.228" cy="40.2645" r="3.5" transform="rotate(-10.2341 126.228 40.2645)" fill="#FFE350"/>
<path d="M297.318 70.0018C298.814 69.4413 300.154 68.4418 301.536 67.6591C303.188 66.7226 304.857 65.8128 306.477 64.8195C309.457 62.9916 312.359 60.9745 315.172 58.8991C316.573 57.8655 317.948 56.6549 318.998 55.2514C319.011 55.2345 319.227 55.0262 319.193 54.9973C319.037 54.8607 318.211 55.1336 318.044 55.1645C317.455 55.2743 316.874 55.4073 316.304 55.5948C314.418 56.2151 312.75 57.408 311.143 58.5501C310.229 59.1994 309.217 59.6898 308.291 60.3201C307.178 61.0776 306.058 61.8166 304.928 62.5487C303.969 63.1701 303.082 63.9 302.14 64.5484C301.332 65.1045 300.488 65.5876 299.717 66.1963C298.947 66.805 298.147 67.4177 297.323 67.955C296.668 68.3824 296.198 68.9692 296.391 69.7671C296.506 70.243 298.896 68.6115 299.016 68.5248C299.818 67.9479 300.496 67.2252 301.266 66.609C301.983 66.0345 302.75 65.5974 303.528 65.1107C306.879 63.0139 310.202 60.8813 313.493 58.702C314.194 58.2373 314.987 57.8493 315.663 57.3632C315.967 57.1447 316.349 56.8375 316.717 56.7709" stroke="#484139" stroke-width="1.97089" stroke-linecap="round"/>
<defs>
<filter id="filter0_d_120_67" x="29.3169" y="161.014" width="111.467" height="38.0065" filterUnits="userSpaceOnUse" color-interpolation-filters="sRGB">
<feFlood flood-opacity="0" result="BackgroundImageFix"/>
<feColorMatrix in="SourceAlpha" type="matrix" values="0 0 0 0 0 0 0 0 0 0 0 0 0 0 0 0 0 0 127 0" result="hardAlpha"/>
<feOffset dy="4"/>
<feGaussianBlur stdDeviation="2"/>
<feComposite in2="hardAlpha" operator="out"/>
<feColorMatrix type="matrix" values="0 0 0 0 0 0 0 0 0 0 0 0 0 0 0 0 0 0 0.11 0"/>
<feBlend mode="normal" in2="BackgroundImageFix" result="effect1_dropShadow_120_67"/>
<feBlend mode="normal" in="SourceGraphic" in2="effect1_dropShadow_120_67" result="shape"/>
</filter>
<filter id="filter1_d_120_67" x="104.361" y="94.7344" width="65.074" height="38.2708" filterUnits="userSpaceOnUse" color-interpolation-filters="sRGB">
<feFlood flood-opacity="0" result="BackgroundImageFix"/>
<feColorMatrix in="SourceAlpha" type="matrix" values="0 0 0 0 0 0 0 0 0 0 0 0 0 0 0 0 0 0 127 0" result="hardAlpha"/>
<feOffset dy="2.59956"/>
<feGaussianBlur stdDeviation="1.29978"/>
<feComposite in2="hardAlpha" operator="out"/>
<feColorMatrix type="matrix" values="0 0 0 0 0 0 0 0 0 0 0 0 0 0 0 0 0 0 0.11 0"/>
<feBlend mode="normal" in2="BackgroundImageFix" result="effect1_dropShadow_120_67"/>
<feBlend mode="normal" in="SourceGraphic" in2="effect1_dropShadow_120_67" result="shape"/>
</filter>
<filter id="filter2_d_120_67" x="74.3059" y="46.5671" width="39.4457" height="64.2473" filterUnits="userSpaceOnUse" color-interpolation-filters="sRGB">
<feFlood flood-opacity="0" result="BackgroundImageFix"/>
<feColorMatrix in="SourceAlpha" type="matrix" values="0 0 0 0 0 0 0 0 0 0 0 0 0 0 0 0 0 0 127 0" result="hardAlpha"/>
<feOffset dy="2.59956"/>
<feGaussianBlur stdDeviation="1.29978"/>
<feComposite in2="hardAlpha" operator="out"/>
<feColorMatrix type="matrix" values="0 0 0 0 0 0 0 0 0 0 0 0 0 0 0 0 0 0 0.11 0"/>
<feBlend mode="normal" in2="BackgroundImageFix" result="effect1_dropShadow_120_67"/>
<feBlend mode="normal" in="SourceGraphic" in2="effect1_dropShadow_120_67" result="shape"/>
</filter>
<linearGradient id="paint0_linear_120_67" x1="115.5" y1="-51.9906" x2="115.5" y2="231" gradientUnits="userSpaceOnUse">
<stop stop-color="#C4F3AE"/>
<stop offset="1" stop-color="#ABFF84"/>
</linearGradient>
</defs>
</svg>
