<svg width="1440" height="1002" viewBox="0 0 1440 1002" fill="none" xmlns="http://www.w3.org/2000/svg">
<path opacity="0.3" fill-rule="evenodd" clip-rule="evenodd" d="M1440 0H0V745.5V748V865C15.5 908.333 85.5 996.2 241.5 1001C344.117 1004.16 406.303 957.329 466.165 912.249C520.057 871.666 572.067 832.5 650 832.5C732.365 832.5 770.983 858.949 809.914 885.612C848.735 912.2 887.867 939.001 971 940C1051.96 940.973 1119.92 911.561 1190.34 881.084C1264.74 848.886 1341.88 815.5 1440 815.5V748V745.5V0Z" fill="url(#paint0_linear_22_25)"/>
<path opacity="0.3" fill-rule="evenodd" clip-rule="evenodd" d="M25 -29H1465V716.5V719V836C1449.5 879.333 1379.5 967.2 1223.5 972C1120.88 975.157 1058.7 928.329 998.835 883.249C944.943 842.666 892.933 803.5 815 803.5C732.635 803.5 694.017 829.949 655.086 856.612C616.265 883.2 577.133 910.001 494 911C413.037 911.973 345.078 882.561 274.661 852.084C200.265 819.886 123.123 786.5 25 786.5V719V716.5V-29Z" fill="url(#paint1_linear_22_25)"/>
<path opacity="0.3" fill-rule="evenodd" clip-rule="evenodd" d="M1365 -59H-75V686.5V689V806C-59.5 849.333 10.5 937.2 166.5 942C269.117 945.157 331.303 898.329 391.165 853.249C445.057 812.666 497.067 773.5 575 773.5C657.365 773.5 695.983 799.949 734.914 826.612C773.735 853.2 812.867 880.001 896 881C976.963 881.973 1044.92 852.561 1115.34 822.084C1189.74 789.886 1266.88 756.5 1365 756.5V689V686.5V-59Z" fill="url(#paint2_linear_22_25)"/>
<path opacity="0.7" fill-rule="evenodd" clip-rule="evenodd" d="M1440 0H0V676.88V679.15V785.381C15.5 824.726 85.5 904.505 241.5 908.863C344.117 911.729 406.303 869.211 466.165 828.281C520.057 791.433 572.067 755.872 650 755.872C732.365 755.872 770.983 779.887 809.914 804.096C848.735 828.237 887.867 852.571 971 853.477C1051.96 854.36 1119.92 827.656 1190.34 799.985C1264.74 770.75 1341.88 740.437 1440 740.437V679.15V676.88V0Z" fill="url(#paint3_linear_22_25)"/>
<defs>
<linearGradient id="paint0_linear_22_25" x1="720" y1="0" x2="720" y2="1001.15" gradientUnits="userSpaceOnUse">
<stop stop-color="#F4E1D9"/>
<stop offset="1" stop-color="#F4EBCC"/>
</linearGradient>
<linearGradient id="paint1_linear_22_25" x1="745" y1="-29" x2="745" y2="972.151" gradientUnits="userSpaceOnUse">
<stop stop-color="#F4E1D9"/>
<stop offset="1" stop-color="#F4EBCC"/>
</linearGradient>
<linearGradient id="paint2_linear_22_25" x1="645" y1="-59" x2="645" y2="942.151" gradientUnits="userSpaceOnUse">
<stop stop-color="#F4E1D9"/>
<stop offset="1" stop-color="#F4EBCC"/>
</linearGradient>
<linearGradient id="paint3_linear_22_25" x1="720" y1="0" x2="720" y2="909" gradientUnits="userSpaceOnUse">
<stop stop-color="#F4E1D9"/>
<stop offset="1" stop-color="#F4EBCC"/>
</linearGradient>
</defs>
</svg>
