<svg width="1440" height="834" viewBox="0 0 1440 834" fill="none" xmlns="http://www.w3.org/2000/svg">
<g clip-path="url(#clip0_62_17)">
<path opacity="0.3" fill-rule="evenodd" clip-rule="evenodd" d="M1440 0H-3V578.5H-3.31818V698C12.3227 741.333 82.9591 829.2 240.377 834C343.928 837.157 406.678 790.329 467.085 745.249C521.467 704.666 573.949 665.5 652.591 665.5C735.705 665.5 774.674 691.949 813.958 718.612C853.132 745.2 892.62 772.001 976.509 773C1058.21 773.973 1126.78 744.561 1197.84 714.084C1272.91 681.886 1350.76 648.5 1449.77 648.5V578.5H1440V0Z" fill="url(#paint0_linear_62_17)"/>
<path opacity="0.3" fill-rule="evenodd" clip-rule="evenodd" d="M0 0H1440V550H1475V669.196C1459.12 712.419 1387.42 800.061 1227.63 804.849C1122.52 807.999 1058.82 761.289 997.504 716.324C942.302 675.844 889.029 636.778 809.201 636.778C724.834 636.778 685.278 663.16 645.401 689.755C605.636 716.276 565.553 743.008 480.399 744.005C397.468 744.975 327.858 715.638 255.729 685.239C179.525 653.123 100.508 619.822 0 619.822V552V550V0Z" fill="url(#paint1_linear_62_17)"/>
<path opacity="0.3" fill-rule="evenodd" clip-rule="evenodd" d="M1440 0H0V520H-78V639.196C-61.5528 682.419 12.725 770.061 178.258 774.849C287.147 777.999 353.132 731.289 416.653 686.324C473.839 645.844 529.027 606.778 611.722 606.778C699.121 606.778 740.099 633.16 781.408 659.755C822.602 686.276 864.125 713.008 952.339 714.005C1038.25 714.975 1110.36 685.638 1185.08 655.239C1264.02 623.123 1345.88 589.822 1450 589.822V520H1440V0Z" fill="url(#paint2_linear_62_17)"/>
<path opacity="0.7" fill-rule="evenodd" clip-rule="evenodd" d="M1440 0H-3V509.88H-3.31818V618.381C12.2175 657.726 82.3788 737.505 238.738 741.863C341.592 744.729 403.921 702.211 463.921 661.281C517.938 624.433 570.067 588.872 648.18 588.872C730.735 588.872 769.442 612.887 808.462 637.096C847.372 661.237 886.594 685.571 969.919 686.477C1051.07 687.36 1119.18 660.656 1189.76 632.985C1264.33 603.75 1341.65 573.437 1440 573.437L1440 512L1440 509.88L1440 0Z" fill="url(#paint3_linear_62_17)"/>
</g>
<defs>
<linearGradient id="paint0_linear_62_17" x1="723.227" y1="-167" x2="723.227" y2="834.151" gradientUnits="userSpaceOnUse">
<stop stop-color="#F4E1D9"/>
<stop offset="1" stop-color="#F4EBCC"/>
</linearGradient>
<linearGradient id="paint1_linear_62_17" x1="748.455" y1="-196" x2="748.455" y2="805.151" gradientUnits="userSpaceOnUse">
<stop stop-color="#F4E1D9"/>
<stop offset="1" stop-color="#F4EBCC"/>
</linearGradient>
<linearGradient id="paint2_linear_62_17" x1="647.546" y1="-226" x2="647.546" y2="775.151" gradientUnits="userSpaceOnUse">
<stop stop-color="#F4E1D9"/>
<stop offset="1" stop-color="#F4EBCC"/>
</linearGradient>
<linearGradient id="paint3_linear_62_17" x1="718.341" y1="-167" x2="718.341" y2="742" gradientUnits="userSpaceOnUse">
<stop stop-color="#F4E1D9"/>
<stop offset="1" stop-color="#F4EBCC"/>
</linearGradient>
<clipPath id="clip0_62_17">
<rect width="1443" height="834" fill="white" transform="translate(-3)"/>
</clipPath>
</defs>
</svg>
